# xmcd
#
# Track frame offsets: 
#        150
#        20425
#        68509
#        101218
#        148781
#        173501
#        202931
#        240039
#        264959
#        293591
#
# Disc length: 4308 seconds
#
# Revision: 1
# Processed by: cddbd v1.5.2PL0 Copyright (c) Steve Scherf et al.
# Submitted via: ExactAudioCopy v1.0b3
#
DISCID=7a10d20a
DTITLE=Marcin Wasilewski Trio - Faithful
DYEAR=2011
DGENRE=Jazz
TTITLE0=An Den Kleinen Radioapparat
TTITLE1=Nigh Train To You
TTITLE2=Faithful
TTITLE3=Mosaic
TTITLE4=Ballad Of The Sad Young Men
TTITLE5=Oz Guizos
TTITLE6=Song For Świrek
TTITLE7=Woke Up In The Desert
TTITLE8=Big Foot
TTITLE9=Lugano Lake
EXTD=YEAR: 2011
EXTT0=
EXTT1=
EXTT2=
EXTT3=
EXTT4=
EXTT5=
EXTT6=
EXTT7=
EXTT8=
EXTT9=
PLAYORDER=
